<svg xmlns="http://www.w3.org/2000/svg" xmlns:xlink="http://www.w3.org/1999/xlink" width="500" zoomAndPan="magnify" viewBox="0 0 375 49.499998" height="66" preserveAspectRatio="xMidYMid meet" version="1.0"><defs><g/></defs><g fill="#000000" fill-opacity="1"><g transform="translate(10.056049, 39.540088)"><g><path d="M 0.828125 8.171875 C -0.078125 8.171875 -0.921875 8.046875 -1.703125 7.796875 C -2.492188 7.554688 -3.132812 7.203125 -3.625 6.734375 L -2.8125 5.203125 C -1.925781 6.003906 -0.753906 6.40625 0.703125 6.40625 C 1.960938 6.40625 2.921875 6.03125 3.578125 5.28125 C 4.242188 4.539062 4.578125 3.46875 4.578125 2.0625 L 4.578125 -21.546875 L 6.640625 -21.546875 L 6.640625 2.140625 C 6.640625 3.984375 6.128906 5.445312 5.109375 6.53125 C 4.097656 7.625 2.671875 8.171875 0.828125 8.171875 Z M 5.609375 -26.796875 C 5.140625 -26.796875 4.738281 -26.953125 4.40625 -27.265625 C 4.082031 -27.578125 3.921875 -27.96875 3.921875 -28.4375 C 3.921875 -28.90625 4.082031 -29.304688 4.40625 -29.640625 C 4.738281 -29.972656 5.140625 -30.140625 5.609375 -30.140625 C 6.078125 -30.140625 6.476562 -29.976562 6.8125 -29.65625 C 7.144531 -29.34375 7.3125 -28.953125 7.3125 -28.484375 C 7.3125 -28.015625 7.144531 -27.613281 6.8125 -27.28125 C 6.476562 -26.957031 6.078125 -26.796875 5.609375 -26.796875 Z M 5.609375 -26.796875 "/></g></g></g><g fill="#000000" fill-opacity="1"><g transform="translate(21.038512, 39.540088)"><g><path d="M 22.578125 -10.28125 L 4.046875 -10.28125 C 4.097656 -8.601562 4.519531 -7.109375 5.3125 -5.796875 C 6.113281 -4.492188 7.195312 -3.484375 8.5625 -2.765625 C 9.925781 -2.046875 11.460938 -1.6875 13.171875 -1.6875 C 14.578125 -1.6875 15.875 -1.941406 17.0625 -2.453125 C 18.257812 -2.960938 19.257812 -3.710938 20.0625 -4.703125 L 21.265625 -3.34375 C 20.328125 -2.21875 19.148438 -1.347656 17.734375 -0.734375 C 16.316406 -0.128906 14.78125 0.171875 13.125 0.171875 C 10.976562 0.171875 9.066406 -0.296875 7.390625 -1.234375 C 5.710938 -2.171875 4.394531 -3.460938 3.4375 -5.109375 C 2.488281 -6.765625 2.015625 -8.65625 2.015625 -10.78125 C 2.015625 -12.863281 2.460938 -14.738281 3.359375 -16.40625 C 4.253906 -18.070312 5.484375 -19.375 7.046875 -20.3125 C 8.617188 -21.25 10.382812 -21.71875 12.34375 -21.71875 C 14.300781 -21.71875 16.054688 -21.253906 17.609375 -20.328125 C 19.160156 -19.410156 20.382812 -18.125 21.28125 -16.46875 C 22.175781 -14.820312 22.625 -12.953125 22.625 -10.859375 Z M 12.34375 -19.890625 C 10.832031 -19.890625 9.46875 -19.550781 8.25 -18.875 C 7.039062 -18.207031 6.070312 -17.257812 5.34375 -16.03125 C 4.613281 -14.8125 4.195312 -13.429688 4.09375 -11.890625 L 20.59375 -11.890625 C 20.507812 -13.429688 20.097656 -14.804688 19.359375 -16.015625 C 18.617188 -17.222656 17.640625 -18.171875 16.421875 -18.859375 C 15.210938 -19.546875 13.851562 -19.890625 12.34375 -19.890625 Z M 12.34375 -19.890625 "/></g></g></g><g fill="#000000" fill-opacity="1"><g transform="translate(45.687137, 39.540088)"><g><path d="M 9.828125 0.171875 C 8.085938 0.171875 6.429688 -0.0859375 4.859375 -0.609375 C 3.296875 -1.140625 2.078125 -1.800781 1.203125 -2.59375 L 2.140625 -4.25 C 3.023438 -3.507812 4.160156 -2.890625 5.546875 -2.390625 C 6.941406 -1.898438 8.394531 -1.65625 9.90625 -1.65625 C 12.082031 -1.65625 13.6875 -2.007812 14.71875 -2.71875 C 15.75 -3.4375 16.265625 -4.429688 16.265625 -5.703125 C 16.265625 -6.609375 15.984375 -7.320312 15.421875 -7.84375 C 14.859375 -8.363281 14.160156 -8.75 13.328125 -9 C 12.503906 -9.25 11.363281 -9.507812 9.90625 -9.78125 C 8.195312 -10.082031 6.816406 -10.410156 5.765625 -10.765625 C 4.722656 -11.128906 3.832031 -11.707031 3.09375 -12.5 C 2.351562 -13.300781 1.984375 -14.40625 1.984375 -15.8125 C 1.984375 -17.519531 2.691406 -18.929688 4.109375 -20.046875 C 5.523438 -21.160156 7.539062 -21.71875 10.15625 -21.71875 C 11.53125 -21.71875 12.890625 -21.523438 14.234375 -21.140625 C 15.585938 -20.753906 16.691406 -20.242188 17.546875 -19.609375 L 16.59375 -17.953125 C 15.71875 -18.585938 14.710938 -19.066406 13.578125 -19.390625 C 12.453125 -19.722656 11.296875 -19.890625 10.109375 -19.890625 C 8.097656 -19.890625 6.582031 -19.519531 5.5625 -18.78125 C 4.550781 -18.039062 4.046875 -17.066406 4.046875 -15.859375 C 4.046875 -14.890625 4.332031 -14.132812 4.90625 -13.59375 C 5.488281 -13.0625 6.195312 -12.664062 7.03125 -12.40625 C 7.875 -12.144531 9.050781 -11.863281 10.5625 -11.5625 C 12.25 -11.257812 13.609375 -10.9375 14.640625 -10.59375 C 15.671875 -10.25 16.539062 -9.691406 17.25 -8.921875 C 17.96875 -8.148438 18.328125 -7.085938 18.328125 -5.734375 C 18.328125 -3.953125 17.582031 -2.519531 16.09375 -1.4375 C 14.613281 -0.363281 12.523438 0.171875 9.828125 0.171875 Z M 9.828125 0.171875 "/></g></g></g><g fill="#000000" fill-opacity="1"><g transform="translate(65.422546, 39.540088)"><g><path d="M 9.828125 0.171875 C 8.085938 0.171875 6.429688 -0.0859375 4.859375 -0.609375 C 3.296875 -1.140625 2.078125 -1.800781 1.203125 -2.59375 L 2.140625 -4.25 C 3.023438 -3.507812 4.160156 -2.890625 5.546875 -2.390625 C 6.941406 -1.898438 8.394531 -1.65625 9.90625 -1.65625 C 12.082031 -1.65625 13.6875 -2.007812 14.71875 -2.71875 C 15.75 -3.4375 16.265625 -4.429688 16.265625 -5.703125 C 16.265625 -6.609375 15.984375 -7.320312 15.421875 -7.84375 C 14.859375 -8.363281 14.160156 -8.75 13.328125 -9 C 12.503906 -9.25 11.363281 -9.507812 9.90625 -9.78125 C 8.195312 -10.082031 6.816406 -10.410156 5.765625 -10.765625 C 4.722656 -11.128906 3.832031 -11.707031 3.09375 -12.5 C 2.351562 -13.300781 1.984375 -14.40625 1.984375 -15.8125 C 1.984375 -17.519531 2.691406 -18.929688 4.109375 -20.046875 C 5.523438 -21.160156 7.539062 -21.71875 10.15625 -21.71875 C 11.53125 -21.71875 12.890625 -21.523438 14.234375 -21.140625 C 15.585938 -20.753906 16.691406 -20.242188 17.546875 -19.609375 L 16.59375 -17.953125 C 15.71875 -18.585938 14.710938 -19.066406 13.578125 -19.390625 C 12.453125 -19.722656 11.296875 -19.890625 10.109375 -19.890625 C 8.097656 -19.890625 6.582031 -19.519531 5.5625 -18.78125 C 4.550781 -18.039062 4.046875 -17.066406 4.046875 -15.859375 C 4.046875 -14.890625 4.332031 -14.132812 4.90625 -13.59375 C 5.488281 -13.0625 6.195312 -12.664062 7.03125 -12.40625 C 7.875 -12.144531 9.050781 -11.863281 10.5625 -11.5625 C 12.25 -11.257812 13.609375 -10.9375 14.640625 -10.59375 C 15.671875 -10.25 16.539062 -9.691406 17.25 -8.921875 C 17.96875 -8.148438 18.328125 -7.085938 18.328125 -5.734375 C 18.328125 -3.953125 17.582031 -2.519531 16.09375 -1.4375 C 14.613281 -0.363281 12.523438 0.171875 9.828125 0.171875 Z M 9.828125 0.171875 "/></g></g></g><g fill="#000000" fill-opacity="1"><g transform="translate(85.157955, 39.540088)"><g><path d="M 22.578125 -10.28125 L 4.046875 -10.28125 C 4.097656 -8.601562 4.519531 -7.109375 5.3125 -5.796875 C 6.113281 -4.492188 7.195312 -3.484375 8.5625 -2.765625 C 9.925781 -2.046875 11.460938 -1.6875 13.171875 -1.6875 C 14.578125 -1.6875 15.875 -1.941406 17.0625 -2.453125 C 18.257812 -2.960938 19.257812 -3.710938 20.0625 -4.703125 L 21.265625 -3.34375 C 20.328125 -2.21875 19.148438 -1.347656 17.734375 -0.734375 C 16.316406 -0.128906 14.78125 0.171875 13.125 0.171875 C 10.976562 0.171875 9.066406 -0.296875 7.390625 -1.234375 C 5.710938 -2.171875 4.394531 -3.460938 3.4375 -5.109375 C 2.488281 -6.765625 2.015625 -8.65625 2.015625 -10.78125 C 2.015625 -12.863281 2.460938 -14.738281 3.359375 -16.40625 C 4.253906 -18.070312 5.484375 -19.375 7.046875 -20.3125 C 8.617188 -21.25 10.382812 -21.71875 12.34375 -21.71875 C 14.300781 -21.71875 16.054688 -21.253906 17.609375 -20.328125 C 19.160156 -19.410156 20.382812 -18.125 21.28125 -16.46875 C 22.175781 -14.820312 22.625 -12.953125 22.625 -10.859375 Z M 12.34375 -19.890625 C 10.832031 -19.890625 9.46875 -19.550781 8.25 -18.875 C 7.039062 -18.207031 6.070312 -17.257812 5.34375 -16.03125 C 4.613281 -14.8125 4.195312 -13.429688 4.09375 -11.890625 L 20.59375 -11.890625 C 20.507812 -13.429688 20.097656 -14.804688 19.359375 -16.015625 C 18.617188 -17.222656 17.640625 -18.171875 16.421875 -18.859375 C 15.210938 -19.546875 13.851562 -19.890625 12.34375 -19.890625 Z M 12.34375 -19.890625 "/></g></g></g><g fill="#000000" fill-opacity="1"><g transform="translate(109.808606, 39.540088)"><g><path d="M 11.84375 4.125 L -1.78125 -34.765625 L 3.96875 -34.765625 L 17.578125 4.125 Z M 11.84375 4.125 "/></g></g></g><g fill="#000000" fill-opacity="1"><g transform="translate(125.993293, 39.540088)"><g><path d="M 17.46875 -5.828125 L 12.390625 -18 L 7.3125 -5.828125 L 2.359375 -5.828125 L 9.828125 -23.078125 L 14.984375 -23.078125 L 22.421875 -5.828125 Z M 17.46875 -5.828125 "/></g></g></g><g fill="#000000" fill-opacity="1"><g transform="translate(150.765778, 39.540088)"><g><path d="M 12.265625 -34.765625 L 18 -34.765625 L 4.375 4.125 L -1.359375 4.125 Z M 12.265625 -34.765625 "/></g></g></g><g fill="#000000" fill-opacity="1"><g transform="translate(166.953228, 39.540088)"><g><path d="M 24.734375 -22.046875 L 24.734375 0 L 19.8125 0 L 19.8125 -2.8125 C 18.988281 -1.820312 17.957031 -1.054688 16.71875 -0.515625 C 15.476562 0.015625 14.144531 0.28125 12.71875 0.28125 C 9.769531 0.28125 7.445312 -0.535156 5.75 -2.171875 C 4.0625 -3.804688 3.21875 -6.234375 3.21875 -9.453125 L 3.21875 -22.046875 L 8.375 -22.046875 L 8.375 -10.15625 C 8.375 -8.175781 8.820312 -6.695312 9.71875 -5.71875 C 10.613281 -4.738281 11.890625 -4.25 13.546875 -4.25 C 15.390625 -4.25 16.851562 -4.816406 17.9375 -5.953125 C 19.019531 -7.097656 19.5625 -8.742188 19.5625 -10.890625 L 19.5625 -22.046875 Z M 24.734375 -22.046875 "/></g></g></g><g fill="#000000" fill-opacity="1"><g transform="translate(195.07, 39.540088)"><g><path d="M 15.890625 -22.296875 C 18.671875 -22.296875 20.898438 -21.484375 22.578125 -19.859375 C 24.253906 -18.234375 25.09375 -15.820312 25.09375 -12.625 L 25.09375 0 L 19.9375 0 L 19.9375 -11.96875 C 19.9375 -13.894531 19.484375 -15.347656 18.578125 -16.328125 C 17.671875 -17.304688 16.378906 -17.796875 14.703125 -17.796875 C 12.796875 -17.796875 11.289062 -17.222656 10.1875 -16.078125 C 9.09375 -14.929688 8.546875 -13.285156 8.546875 -11.140625 L 8.546875 0 L 3.390625 0 L 3.390625 -22.046875 L 8.296875 -22.046875 L 8.296875 -19.203125 C 9.148438 -20.210938 10.222656 -20.976562 11.515625 -21.5 C 12.804688 -22.03125 14.265625 -22.296875 15.890625 -22.296875 Z M 15.890625 -22.296875 "/></g></g></g><g fill="#000000" fill-opacity="1"><g transform="translate(223.351921, 39.540088)"><g><path d="M 24.96875 -30.625 L 24.96875 0 L 20.015625 0 L 20.015625 -2.84375 C 19.160156 -1.800781 18.109375 -1.019531 16.859375 -0.5 C 15.609375 0.0195312 14.226562 0.28125 12.71875 0.28125 C 10.59375 0.28125 8.679688 -0.179688 6.984375 -1.109375 C 5.296875 -2.046875 3.96875 -3.375 3 -5.09375 C 2.039062 -6.8125 1.5625 -8.785156 1.5625 -11.015625 C 1.5625 -13.242188 2.039062 -15.210938 3 -16.921875 C 3.96875 -18.628906 5.296875 -19.953125 6.984375 -20.890625 C 8.679688 -21.828125 10.59375 -22.296875 12.71875 -22.296875 C 14.175781 -22.296875 15.507812 -22.046875 16.71875 -21.546875 C 17.925781 -21.054688 18.957031 -20.3125 19.8125 -19.3125 L 19.8125 -30.625 Z M 13.328125 -4.125 C 14.566406 -4.125 15.679688 -4.40625 16.671875 -4.96875 C 17.660156 -5.539062 18.441406 -6.347656 19.015625 -7.390625 C 19.597656 -8.429688 19.890625 -9.640625 19.890625 -11.015625 C 19.890625 -12.398438 19.597656 -13.613281 19.015625 -14.65625 C 18.441406 -15.695312 17.660156 -16.5 16.671875 -17.0625 C 15.679688 -17.632812 14.566406 -17.921875 13.328125 -17.921875 C 12.085938 -17.921875 10.972656 -17.632812 9.984375 -17.0625 C 8.992188 -16.5 8.207031 -15.695312 7.625 -14.65625 C 7.050781 -13.613281 6.765625 -12.398438 6.765625 -11.015625 C 6.765625 -9.640625 7.050781 -8.429688 7.625 -7.390625 C 8.207031 -6.347656 8.992188 -5.539062 9.984375 -4.96875 C 10.972656 -4.40625 12.085938 -4.125 13.328125 -4.125 Z M 13.328125 -4.125 "/></g></g></g><g fill="#000000" fill-opacity="1"><g transform="translate(251.716415, 39.540088)"><g><path d="M 24.109375 -10.890625 C 24.109375 -10.535156 24.082031 -10.03125 24.03125 -9.375 L 6.734375 -9.375 C 7.035156 -7.75 7.820312 -6.460938 9.09375 -5.515625 C 10.375 -4.566406 11.96875 -4.09375 13.875 -4.09375 C 16.289062 -4.09375 18.285156 -4.890625 19.859375 -6.484375 L 22.625 -3.296875 C 21.632812 -2.117188 20.378906 -1.226562 18.859375 -0.625 C 17.347656 -0.0195312 15.644531 0.28125 13.75 0.28125 C 11.320312 0.28125 9.1875 -0.195312 7.34375 -1.15625 C 5.5 -2.113281 4.070312 -3.453125 3.0625 -5.171875 C 2.0625 -6.898438 1.5625 -8.847656 1.5625 -11.015625 C 1.5625 -13.160156 2.050781 -15.09375 3.03125 -16.8125 C 4.007812 -18.539062 5.363281 -19.882812 7.09375 -20.84375 C 8.832031 -21.8125 10.789062 -22.296875 12.96875 -22.296875 C 15.113281 -22.296875 17.03125 -21.816406 18.71875 -20.859375 C 20.414062 -19.910156 21.738281 -18.578125 22.6875 -16.859375 C 23.632812 -15.140625 24.109375 -13.148438 24.109375 -10.890625 Z M 12.96875 -18.15625 C 11.3125 -18.15625 9.910156 -17.664062 8.765625 -16.6875 C 7.628906 -15.71875 6.9375 -14.421875 6.6875 -12.796875 L 19.203125 -12.796875 C 18.972656 -14.390625 18.296875 -15.679688 17.171875 -16.671875 C 16.046875 -17.660156 14.644531 -18.15625 12.96875 -18.15625 Z M 12.96875 -18.15625 "/></g></g></g><g fill="#000000" fill-opacity="1"><g transform="translate(277.397224, 39.540088)"><g><path d="M 8.296875 -18.828125 C 9.785156 -21.140625 12.398438 -22.296875 16.140625 -22.296875 L 16.140625 -17.375 C 15.703125 -17.457031 15.300781 -17.5 14.9375 -17.5 C 12.9375 -17.5 11.367188 -16.914062 10.234375 -15.75 C 9.109375 -14.582031 8.546875 -12.894531 8.546875 -10.6875 L 8.546875 0 L 3.390625 0 L 3.390625 -22.046875 L 8.296875 -22.046875 Z M 8.296875 -18.828125 "/></g></g></g><g fill="#000000" fill-opacity="1"><g transform="translate(294.737968, 39.540088)"><g><path d="M 3.390625 -30.625 L 8.546875 -30.625 L 8.546875 0 L 3.390625 0 Z M 3.390625 -30.625 "/></g></g></g><g fill="#000000" fill-opacity="1"><g transform="translate(306.670054, 39.540088)"><g><path d="M 3.390625 -22.046875 L 8.546875 -22.046875 L 8.546875 0 L 3.390625 0 Z M 5.984375 -25.671875 C 5.054688 -25.671875 4.273438 -25.96875 3.640625 -26.5625 C 3.003906 -27.15625 2.6875 -27.890625 2.6875 -28.765625 C 2.6875 -29.648438 3.003906 -30.390625 3.640625 -30.984375 C 4.273438 -31.578125 5.054688 -31.875 5.984375 -31.875 C 6.921875 -31.875 7.707031 -31.585938 8.34375 -31.015625 C 8.976562 -30.453125 9.296875 -29.742188 9.296875 -28.890625 C 9.296875 -27.984375 8.984375 -27.21875 8.359375 -26.59375 C 7.742188 -25.976562 6.953125 -25.671875 5.984375 -25.671875 Z M 5.984375 -25.671875 "/></g></g></g><g fill="#000000" fill-opacity="1"><g transform="translate(318.602141, 39.540088)"><g><path d="M 13.5 0.28125 C 11.21875 0.28125 9.164062 -0.195312 7.34375 -1.15625 C 5.53125 -2.113281 4.113281 -3.453125 3.09375 -5.171875 C 2.070312 -6.898438 1.5625 -8.847656 1.5625 -11.015625 C 1.5625 -13.191406 2.070312 -15.132812 3.09375 -16.84375 C 4.113281 -18.550781 5.523438 -19.882812 7.328125 -20.84375 C 9.128906 -21.8125 11.1875 -22.296875 13.5 -22.296875 C 15.675781 -22.296875 17.582031 -21.851562 19.21875 -20.96875 C 20.851562 -20.09375 22.082031 -18.828125 22.90625 -17.171875 L 18.953125 -14.859375 C 18.316406 -15.878906 17.523438 -16.644531 16.578125 -17.15625 C 15.628906 -17.664062 14.585938 -17.921875 13.453125 -17.921875 C 11.523438 -17.921875 9.925781 -17.289062 8.65625 -16.03125 C 7.394531 -14.78125 6.765625 -13.109375 6.765625 -11.015625 C 6.765625 -8.929688 7.390625 -7.257812 8.640625 -6 C 9.898438 -4.75 11.503906 -4.125 13.453125 -4.125 C 14.585938 -4.125 15.628906 -4.378906 16.578125 -4.890625 C 17.523438 -5.398438 18.316406 -6.164062 18.953125 -7.1875 L 22.90625 -4.875 C 22.050781 -3.21875 20.804688 -1.941406 19.171875 -1.046875 C 17.535156 -0.160156 15.644531 0.28125 13.5 0.28125 Z M 13.5 0.28125 "/></g></g></g><g fill="#000000" fill-opacity="1"><g transform="translate(342.590162, 39.540088)"><g><path d="M 15.890625 -22.296875 C 18.671875 -22.296875 20.898438 -21.484375 22.578125 -19.859375 C 24.253906 -18.234375 25.09375 -15.820312 25.09375 -12.625 L 25.09375 0 L 19.9375 0 L 19.9375 -11.96875 C 19.9375 -13.894531 19.484375 -15.347656 18.578125 -16.328125 C 17.671875 -17.304688 16.378906 -17.796875 14.703125 -17.796875 C 12.796875 -17.796875 11.289062 -17.222656 10.1875 -16.078125 C 9.09375 -14.929688 8.546875 -13.285156 8.546875 -11.140625 L 8.546875 0 L 3.390625 0 L 3.390625 -30.625 L 8.546875 -30.625 L 8.546875 -19.484375 C 9.398438 -20.390625 10.453125 -21.082031 11.703125 -21.5625 C 12.953125 -22.050781 14.347656 -22.296875 15.890625 -22.296875 Z M 15.890625 -22.296875 "/></g></g></g></svg>