<svg xmlns="http://www.w3.org/2000/svg" xmlns:xlink="http://www.w3.org/1999/xlink" width="800" zoomAndPan="magnify" viewBox="0 0 600 337.499995" height="450" preserveAspectRatio="xMidYMid meet" version="1.0"><defs><g/><clipPath id="3233814b6f"><path d="M 0.445312 0 L 599.554688 0 L 599.554688 337 L 0.445312 337 Z M 0.445312 0 " clip-rule="nonzero"/></clipPath><clipPath id="8ba46cf335"><path d="M 0.445312 147.746094 L 599.554688 147.746094 L 599.554688 195.152344 L 0.445312 195.152344 Z M 0.445312 147.746094 " clip-rule="nonzero"/></clipPath></defs><g clip-path="url(#3233814b6f)"><path fill="#ffffff" d="M 0.445312 0 L 599.554688 0 L 599.554688 337 L 0.445312 337 Z M 0.445312 0 " fill-opacity="1" fill-rule="nonzero"/><path fill="#000000" d="M 0.445312 0 L 599.554688 0 L 599.554688 337 L 0.445312 337 Z M 0.445312 0 " fill-opacity="1" fill-rule="nonzero"/></g><g fill="#ffffff" fill-opacity="1"><g transform="translate(63.557313, 248.353149)"><g><path d="M 77.390625 3.296875 L 73.203125 3.296875 L 23.71875 -126.875 C 19.632812 -137.539062 15.753906 -144.632812 12.078125 -148.15625 C 8.410156 -151.675781 3.4375 -153.585938 -2.84375 -153.890625 L -2.84375 -157.0625 L 65.03125 -157.0625 L 65.03125 -153.890625 C 58.519531 -153.359375 53.804688 -152.070312 50.890625 -150.03125 C 47.984375 -147.988281 46.53125 -144.925781 46.53125 -140.84375 C 46.53125 -139.40625 46.925781 -136.960938 47.71875 -133.515625 C 48.507812 -130.078125 49.585938 -126.539062 50.953125 -122.90625 L 83.859375 -32.109375 L 110.65625 -113.71875 L 110.765625 -114.171875 C 112.878906 -120.972656 113.9375 -126.304688 113.9375 -130.171875 C 113.9375 -138.335938 112.234375 -144.289062 108.828125 -148.03125 C 105.429688 -151.78125 99.984375 -153.734375 92.484375 -153.890625 L 92.484375 -157.0625 L 157.296875 -157.0625 L 157.296875 -153.890625 C 149.804688 -153.128906 144.8125 -151.671875 142.3125 -149.515625 C 139.8125 -147.359375 138.5625 -143.554688 138.5625 -138.109375 C 138.5625 -135.921875 138.769531 -133.460938 139.1875 -130.734375 C 139.601562 -128.015625 140.15625 -125.40625 140.84375 -122.90625 L 167.171875 -29.734375 L 195.203125 -105.546875 C 197.847656 -112.503906 199.832031 -118.6875 201.15625 -124.09375 C 202.476562 -129.507812 203.140625 -133.914062 203.140625 -137.3125 C 203.140625 -143.144531 201.757812 -147.289062 199 -149.75 C 196.238281 -152.207031 191.414062 -153.585938 184.53125 -153.890625 L 184.53125 -157.0625 L 236.84375 -157.0625 L 236.84375 -153.890625 C 229.957031 -152.898438 224.113281 -149.472656 219.3125 -143.609375 C 214.507812 -137.753906 209.117188 -126.921875 203.140625 -111.109375 L 159.453125 3.296875 L 154.109375 3.296875 L 117.34375 -119.28125 Z M 77.390625 3.296875 "/></g></g></g><g fill="#ffffff" fill-opacity="1"><g transform="translate(303.200564, 248.353149)"><g><path d="M 77.390625 3.296875 L 73.203125 3.296875 L 23.71875 -126.875 C 19.632812 -137.539062 15.753906 -144.632812 12.078125 -148.15625 C 8.410156 -151.675781 3.4375 -153.585938 -2.84375 -153.890625 L -2.84375 -157.0625 L 65.03125 -157.0625 L 65.03125 -153.890625 C 58.519531 -153.359375 53.804688 -152.070312 50.890625 -150.03125 C 47.984375 -147.988281 46.53125 -144.925781 46.53125 -140.84375 C 46.53125 -139.40625 46.925781 -136.960938 47.71875 -133.515625 C 48.507812 -130.078125 49.585938 -126.539062 50.953125 -122.90625 L 83.859375 -32.109375 L 110.65625 -113.71875 L 110.765625 -114.171875 C 112.878906 -120.972656 113.9375 -126.304688 113.9375 -130.171875 C 113.9375 -138.335938 112.234375 -144.289062 108.828125 -148.03125 C 105.429688 -151.78125 99.984375 -153.734375 92.484375 -153.890625 L 92.484375 -157.0625 L 157.296875 -157.0625 L 157.296875 -153.890625 C 149.804688 -153.128906 144.8125 -151.671875 142.3125 -149.515625 C 139.8125 -147.359375 138.5625 -143.554688 138.5625 -138.109375 C 138.5625 -135.921875 138.769531 -133.460938 139.1875 -130.734375 C 139.601562 -128.015625 140.15625 -125.40625 140.84375 -122.90625 L 167.171875 -29.734375 L 195.203125 -105.546875 C 197.847656 -112.503906 199.832031 -118.6875 201.15625 -124.09375 C 202.476562 -129.507812 203.140625 -133.914062 203.140625 -137.3125 C 203.140625 -143.144531 201.757812 -147.289062 199 -149.75 C 196.238281 -152.207031 191.414062 -153.585938 184.53125 -153.890625 L 184.53125 -157.0625 L 236.84375 -157.0625 L 236.84375 -153.890625 C 229.957031 -152.898438 224.113281 -149.472656 219.3125 -143.609375 C 214.507812 -137.753906 209.117188 -126.921875 203.140625 -111.109375 L 159.453125 3.296875 L 154.109375 3.296875 L 117.34375 -119.28125 Z M 77.390625 3.296875 "/></g></g></g><g clip-path="url(#8ba46cf335)"><path fill="#000000" d="M 0.445312 147.746094 L 599.484375 147.746094 L 599.484375 195.152344 L 0.445312 195.152344 Z M 0.445312 147.746094 " fill-opacity="1" fill-rule="nonzero"/></g><g fill="#ffffff" fill-opacity="1"><g transform="translate(61.103921, 184.131646)"><g><path d="M 13.4375 0.578125 L 12.703125 0.578125 L 4.109375 -22.03125 C 3.398438 -23.875 2.726562 -25.101562 2.09375 -25.71875 C 1.457031 -26.332031 0.59375 -26.664062 -0.5 -26.71875 L -0.5 -27.265625 L 11.28125 -27.265625 L 11.28125 -26.71875 C 10.15625 -26.625 9.335938 -26.398438 8.828125 -26.046875 C 8.328125 -25.691406 8.078125 -25.160156 8.078125 -24.453125 C 8.078125 -24.203125 8.144531 -23.773438 8.28125 -23.171875 C 8.414062 -22.578125 8.601562 -21.960938 8.84375 -21.328125 L 14.5625 -5.578125 L 19.203125 -19.734375 L 19.21875 -19.8125 C 19.59375 -21 19.78125 -21.925781 19.78125 -22.59375 C 19.78125 -24.007812 19.484375 -25.039062 18.890625 -25.6875 C 18.296875 -26.34375 17.351562 -26.6875 16.0625 -26.71875 L 16.0625 -27.265625 L 27.296875 -27.265625 L 27.296875 -26.71875 C 26.003906 -26.582031 25.140625 -26.328125 24.703125 -25.953125 C 24.265625 -25.578125 24.046875 -24.914062 24.046875 -23.96875 C 24.046875 -23.59375 24.082031 -23.164062 24.15625 -22.6875 C 24.226562 -22.21875 24.328125 -21.765625 24.453125 -21.328125 L 29.015625 -5.15625 L 33.875 -18.3125 C 34.34375 -19.519531 34.691406 -20.59375 34.921875 -21.53125 C 35.148438 -22.476562 35.265625 -23.242188 35.265625 -23.828125 C 35.265625 -24.847656 35.023438 -25.570312 34.546875 -26 C 34.066406 -26.425781 33.226562 -26.664062 32.03125 -26.71875 L 32.03125 -27.265625 L 41.109375 -27.265625 L 41.109375 -26.71875 C 39.910156 -26.539062 38.894531 -25.941406 38.0625 -24.921875 C 37.226562 -23.910156 36.296875 -22.03125 35.265625 -19.28125 L 27.671875 0.578125 L 26.75 0.578125 L 20.375 -20.703125 Z M 13.4375 0.578125 "/></g></g><g transform="translate(101.330207, 184.131646)"><g><path d="M 24.28125 -19.4375 C 24.28125 -22.226562 23.984375 -24.128906 23.390625 -25.140625 C 22.796875 -26.148438 21.738281 -26.675781 20.21875 -26.71875 L 20.21875 -27.265625 L 29.140625 -27.265625 L 29.109375 -26.71875 C 27.617188 -26.675781 26.578125 -26.148438 25.984375 -25.140625 C 25.390625 -24.128906 25.09375 -22.226562 25.09375 -19.4375 L 25.09375 -10.859375 C 25.09375 -6.535156 24.316406 -3.535156 22.765625 -1.859375 C 21.222656 -0.179688 18.5625 0.65625 14.78125 0.65625 C 12.769531 0.65625 11.070312 0.429688 9.6875 -0.015625 C 8.300781 -0.472656 7.1875 -1.164062 6.34375 -2.09375 C 5.726562 -2.769531 5.296875 -3.625 5.046875 -4.65625 C 4.804688 -5.695312 4.6875 -7.535156 4.6875 -10.171875 L 4.6875 -17.140625 C 4.6875 -21.566406 4.4375 -24.269531 3.9375 -25.25 C 3.4375 -26.226562 2.472656 -26.71875 1.046875 -26.71875 L 0.734375 -26.71875 L 0.734375 -27.265625 L 12.859375 -27.265625 L 12.859375 -26.71875 L 12.546875 -26.71875 C 11.128906 -26.71875 10.175781 -26.234375 9.6875 -25.265625 C 9.207031 -24.304688 8.96875 -21.734375 8.96875 -17.546875 L 8.96875 -10.203125 C 8.96875 -6.734375 9.535156 -4.328125 10.671875 -2.984375 C 11.816406 -1.640625 13.75 -0.96875 16.46875 -0.96875 C 19.289062 -0.96875 21.296875 -1.671875 22.484375 -3.078125 C 23.679688 -4.492188 24.28125 -7.019531 24.28125 -10.65625 Z M 24.28125 -19.4375 "/></g></g><g transform="translate(131.017284, 184.131646)"><g><path d="M 25.25 -6.96875 L 25.25 -19.4375 C 25.25 -22.226562 24.953125 -24.128906 24.359375 -25.140625 C 23.765625 -26.148438 22.703125 -26.675781 21.171875 -26.71875 L 21.171875 -27.265625 L 30.140625 -27.265625 L 30.140625 -26.71875 C 28.628906 -26.675781 27.578125 -26.148438 26.984375 -25.140625 C 26.390625 -24.128906 26.09375 -22.226562 26.09375 -19.4375 L 26.09375 0.28125 L 25.53125 0.28125 L 6.25 -23.828125 L 6.25 -7.828125 C 6.25 -5.015625 6.539062 -3.109375 7.125 -2.109375 C 7.71875 -1.109375 8.769531 -0.585938 10.28125 -0.546875 L 10.28125 0 L 1.375 0 L 1.375 -0.578125 C 2.882812 -0.609375 3.929688 -1.125 4.515625 -2.125 C 5.097656 -3.132812 5.390625 -5.035156 5.390625 -7.828125 L 5.390625 -19.671875 C 5.390625 -22.503906 5.109375 -24.378906 4.546875 -25.296875 C 3.984375 -26.210938 2.96875 -26.6875 1.5 -26.71875 L 1.5 -27.265625 L 8.96875 -27.265625 Z M 25.25 -6.96875 "/></g></g><g transform="translate(161.886329, 184.131646)"><g><path d="M 1.6875 0 L 1.6875 -0.578125 L 2.015625 -0.578125 C 3.429688 -0.578125 4.382812 -1.050781 4.875 -2 C 5.363281 -2.945312 5.609375 -5.523438 5.609375 -9.734375 L 5.609375 -17.546875 C 5.609375 -21.734375 5.363281 -24.304688 4.875 -25.265625 C 4.382812 -26.234375 3.429688 -26.71875 2.015625 -26.71875 L 1.6875 -26.71875 L 1.6875 -27.265625 L 13.203125 -27.265625 C 15.785156 -27.265625 17.878906 -27.085938 19.484375 -26.734375 C 21.085938 -26.378906 22.457031 -25.804688 23.59375 -25.015625 C 25.289062 -23.847656 26.625 -22.253906 27.59375 -20.234375 C 28.570312 -18.210938 29.0625 -16.007812 29.0625 -13.625 C 29.0625 -11.28125 28.585938 -9.101562 27.640625 -7.09375 C 26.691406 -5.082031 25.382812 -3.488281 23.71875 -2.3125 C 22.5625 -1.476562 21.203125 -0.882812 19.640625 -0.53125 C 18.078125 -0.175781 15.929688 0 13.203125 0 Z M 9.890625 -26.421875 L 9.890625 -7.625 C 9.890625 -4.6875 10.15625 -2.820312 10.6875 -2.03125 C 11.226562 -1.238281 12.273438 -0.84375 13.828125 -0.84375 C 16.835938 -0.84375 19.285156 -2.019531 21.171875 -4.375 C 23.066406 -6.738281 24.015625 -9.820312 24.015625 -13.625 C 24.015625 -17.644531 23.007812 -20.78125 21 -23.03125 C 18.988281 -25.289062 16.195312 -26.421875 12.625 -26.421875 Z M 9.890625 -26.421875 "/></g></g><g transform="translate(192.715975, 184.131646)"><g><path d="M 1.6875 0 L 1.6875 -0.578125 L 2.015625 -0.578125 C 3.429688 -0.578125 4.382812 -1.050781 4.875 -2 C 5.363281 -2.945312 5.609375 -5.523438 5.609375 -9.734375 L 5.609375 -17.546875 C 5.609375 -21.734375 5.363281 -24.304688 4.875 -25.265625 C 4.382812 -26.234375 3.429688 -26.71875 2.015625 -26.71875 L 1.6875 -26.71875 L 1.6875 -27.265625 L 22.59375 -27.265625 L 22.875 -20.75 L 22.359375 -20.75 C 21.910156 -22.832031 21.054688 -24.296875 19.796875 -25.140625 C 18.546875 -25.992188 16.554688 -26.421875 13.828125 -26.421875 L 9.890625 -26.421875 L 9.890625 -14.859375 C 12.429688 -14.890625 14.148438 -15.238281 15.046875 -15.90625 C 15.953125 -16.582031 16.441406 -17.8125 16.515625 -19.59375 L 17.0625 -19.59375 L 17.0625 -8.84375 L 16.515625 -8.84375 C 16.367188 -10.851562 15.835938 -12.222656 14.921875 -12.953125 C 14.003906 -13.691406 12.328125 -14.082031 9.890625 -14.125 L 9.890625 -8.234375 C 9.890625 -4.773438 10.203125 -2.671875 10.828125 -1.921875 C 11.460938 -1.179688 13.085938 -0.8125 15.703125 -0.8125 C 18.441406 -0.8125 20.523438 -1.40625 21.953125 -2.59375 C 23.390625 -3.78125 24.285156 -5.660156 24.640625 -8.234375 L 25.21875 -8.234375 L 24.9375 0 Z M 1.6875 0 "/></g></g><g transform="translate(219.428435, 184.131646)"><g><path d="M 9.890625 -14.125 L 11.65625 -14.125 C 13.945312 -14.125 15.648438 -14.601562 16.765625 -15.5625 C 17.878906 -16.519531 18.4375 -17.976562 18.4375 -19.9375 C 18.4375 -22.125 17.90625 -23.75 16.84375 -24.8125 C 15.78125 -25.882812 14.144531 -26.421875 11.9375 -26.421875 L 9.890625 -26.421875 Z M 9.890625 -10.578125 L 9.890625 -10.125 C 9.890625 -5.695312 10.132812 -3 10.625 -2.03125 C 11.113281 -1.0625 12.078125 -0.578125 13.515625 -0.578125 L 13.828125 -0.578125 L 13.828125 0 L 1.6875 0 L 1.6875 -0.578125 L 2.015625 -0.578125 C 3.429688 -0.578125 4.382812 -1.050781 4.875 -2 C 5.363281 -2.945312 5.609375 -5.523438 5.609375 -9.734375 L 5.609375 -17.546875 C 5.609375 -21.734375 5.363281 -24.304688 4.875 -25.265625 C 4.382812 -26.234375 3.429688 -26.71875 2.015625 -26.71875 L 1.6875 -26.71875 L 1.6875 -27.265625 L 13.359375 -27.265625 C 16.640625 -27.265625 19.054688 -26.695312 20.609375 -25.5625 C 22.171875 -24.4375 22.953125 -22.691406 22.953125 -20.328125 C 22.953125 -18.503906 22.40625 -17.023438 21.3125 -15.890625 C 20.21875 -14.753906 18.65625 -14.039062 16.625 -13.75 C 18.769531 -13.65625 20.582031 -11.972656 22.0625 -8.703125 C 22.644531 -7.421875 23.128906 -6.429688 23.515625 -5.734375 C 24.472656 -3.992188 25.472656 -2.695312 26.515625 -1.84375 C 27.554688 -1 28.625 -0.578125 29.71875 -0.578125 L 29.90625 -0.578125 L 29.90625 0 L 22.140625 0 C 21.035156 -1.71875 19.976562 -3.644531 18.96875 -5.78125 C 17.957031 -7.925781 17.429688 -9.03125 17.390625 -9.09375 C 16.441406 -10.875 15.582031 -12.015625 14.8125 -12.515625 C 14.050781 -13.023438 12.890625 -13.28125 11.328125 -13.28125 L 9.890625 -13.28125 Z M 9.890625 -10.578125 "/></g></g><g transform="translate(247.638054, 184.131646)"><g><path d="M 9.890625 -8.234375 C 9.890625 -4.859375 10.238281 -2.773438 10.9375 -1.984375 C 11.644531 -1.203125 13.171875 -0.8125 15.515625 -0.8125 C 18.367188 -0.8125 20.507812 -1.394531 21.9375 -2.5625 C 23.375 -3.726562 24.273438 -5.617188 24.640625 -8.234375 L 25.21875 -8.234375 L 24.9375 0 L 1.6875 0 L 1.6875 -0.578125 L 2.015625 -0.578125 C 3.429688 -0.578125 4.382812 -1.050781 4.875 -2 C 5.363281 -2.945312 5.609375 -5.523438 5.609375 -9.734375 L 5.609375 -17.546875 C 5.609375 -21.734375 5.363281 -24.304688 4.875 -25.265625 C 4.382812 -26.234375 3.429688 -26.71875 2.015625 -26.71875 L 1.6875 -26.71875 L 1.6875 -27.265625 L 13.828125 -27.265625 L 13.828125 -26.71875 L 13.515625 -26.71875 C 12.078125 -26.71875 11.113281 -26.226562 10.625 -25.25 C 10.132812 -24.269531 9.890625 -21.566406 9.890625 -17.140625 Z M 9.890625 -8.234375 "/></g></g><g transform="translate(273.207945, 184.131646)"><g><path d="M 14.125 -27.265625 L 14.125 -26.71875 L 13.796875 -26.71875 C 12.367188 -26.71875 11.40625 -26.226562 10.90625 -25.25 C 10.414062 -24.269531 10.171875 -21.566406 10.171875 -17.140625 L 10.171875 -10.125 C 10.171875 -5.695312 10.414062 -3 10.90625 -2.03125 C 11.40625 -1.0625 12.367188 -0.578125 13.796875 -0.578125 L 14.125 -0.578125 L 14.125 0 L 1.765625 0 L 1.765625 -0.578125 L 2.09375 -0.578125 C 3.507812 -0.578125 4.460938 -1.050781 4.953125 -2 C 5.441406 -2.945312 5.6875 -5.523438 5.6875 -9.734375 L 5.6875 -17.546875 C 5.6875 -21.734375 5.441406 -24.304688 4.953125 -25.265625 C 4.460938 -26.234375 3.507812 -26.71875 2.09375 -26.71875 L 1.765625 -26.71875 L 1.765625 -27.265625 Z M 14.125 -27.265625 "/></g></g><g transform="translate(289.105405, 184.131646)"><g><path d="M 25.859375 -8 C 25.691406 -5.34375 24.664062 -3.234375 22.78125 -1.671875 C 20.894531 -0.117188 18.410156 0.65625 15.328125 0.65625 C 11.253906 0.65625 8.015625 -0.546875 5.609375 -2.953125 C 3.210938 -5.367188 2.015625 -8.644531 2.015625 -12.78125 C 2.015625 -17.289062 3.316406 -20.9375 5.921875 -23.71875 C 8.523438 -26.507812 11.890625 -27.90625 16.015625 -27.90625 C 17.492188 -27.90625 19.085938 -27.628906 20.796875 -27.078125 C 22.503906 -26.535156 23.488281 -26.265625 23.75 -26.265625 C 24 -26.265625 24.222656 -26.34375 24.421875 -26.5 C 24.617188 -26.65625 24.789062 -26.882812 24.9375 -27.1875 L 25.53125 -27.1875 L 25.75 -18.515625 L 25.21875 -18.515625 C 24.457031 -21.265625 23.328125 -23.375 21.828125 -24.84375 C 20.328125 -26.320312 18.566406 -27.0625 16.546875 -27.0625 C 13.671875 -27.0625 11.363281 -25.796875 9.625 -23.265625 C 7.882812 -20.742188 7.015625 -17.398438 7.015625 -13.234375 C 7.015625 -9.347656 7.882812 -6.289062 9.625 -4.0625 C 11.363281 -1.84375 13.738281 -0.734375 16.75 -0.734375 C 19.09375 -0.734375 21.023438 -1.390625 22.546875 -2.703125 C 24.078125 -4.015625 24.941406 -5.78125 25.140625 -8 Z M 25.859375 -8 "/></g></g><g transform="translate(317.05893, 184.131646)"><g><path d="M 23.515625 -13.703125 L 9.890625 -13.703125 L 9.890625 -10.125 C 9.890625 -5.695312 10.132812 -3 10.625 -2.03125 C 11.113281 -1.0625 12.078125 -0.578125 13.515625 -0.578125 L 13.828125 -0.578125 L 13.828125 0 L 1.6875 0 L 1.6875 -0.578125 L 2.015625 -0.578125 C 3.429688 -0.578125 4.382812 -1.050781 4.875 -2 C 5.363281 -2.945312 5.609375 -5.523438 5.609375 -9.734375 L 5.609375 -17.546875 C 5.609375 -21.734375 5.363281 -24.304688 4.875 -25.265625 C 4.382812 -26.234375 3.429688 -26.71875 2.015625 -26.71875 L 1.6875 -26.71875 L 1.6875 -27.265625 L 13.828125 -27.265625 L 13.828125 -26.71875 L 13.515625 -26.71875 C 12.078125 -26.71875 11.113281 -26.226562 10.625 -25.25 C 10.132812 -24.269531 9.890625 -21.566406 9.890625 -17.140625 L 9.890625 -14.640625 L 23.515625 -14.640625 L 23.515625 -17.546875 C 23.515625 -21.734375 23.269531 -24.304688 22.78125 -25.265625 C 22.289062 -26.234375 21.34375 -26.71875 19.9375 -26.71875 L 19.59375 -26.71875 L 19.59375 -27.265625 L 31.75 -27.265625 L 31.75 -26.71875 L 31.421875 -26.71875 C 30.015625 -26.71875 29.0625 -26.234375 28.5625 -25.265625 C 28.070312 -24.304688 27.828125 -21.734375 27.828125 -17.546875 L 27.828125 -9.734375 C 27.828125 -5.523438 28.070312 -2.945312 28.5625 -2 C 29.0625 -1.050781 30.015625 -0.578125 31.421875 -0.578125 L 31.75 -0.578125 L 31.75 0 L 19.59375 0 L 19.59375 -0.578125 L 19.9375 -0.578125 C 21.34375 -0.578125 22.289062 -1.050781 22.78125 -2 C 23.269531 -2.945312 23.515625 -5.523438 23.515625 -9.734375 Z M 23.515625 -13.703125 "/></g></g><g transform="translate(350.508603, 184.131646)"><g/></g><g transform="translate(361.166008, 184.131646)"><g><path d="M 13.4375 0.578125 L 12.703125 0.578125 L 4.109375 -22.03125 C 3.398438 -23.875 2.726562 -25.101562 2.09375 -25.71875 C 1.457031 -26.332031 0.59375 -26.664062 -0.5 -26.71875 L -0.5 -27.265625 L 11.28125 -27.265625 L 11.28125 -26.71875 C 10.15625 -26.625 9.335938 -26.398438 8.828125 -26.046875 C 8.328125 -25.691406 8.078125 -25.160156 8.078125 -24.453125 C 8.078125 -24.203125 8.144531 -23.773438 8.28125 -23.171875 C 8.414062 -22.578125 8.601562 -21.960938 8.84375 -21.328125 L 14.5625 -5.578125 L 19.203125 -19.734375 L 19.21875 -19.8125 C 19.59375 -21 19.78125 -21.925781 19.78125 -22.59375 C 19.78125 -24.007812 19.484375 -25.039062 18.890625 -25.6875 C 18.296875 -26.34375 17.351562 -26.6875 16.0625 -26.71875 L 16.0625 -27.265625 L 27.296875 -27.265625 L 27.296875 -26.71875 C 26.003906 -26.582031 25.140625 -26.328125 24.703125 -25.953125 C 24.265625 -25.578125 24.046875 -24.914062 24.046875 -23.96875 C 24.046875 -23.59375 24.082031 -23.164062 24.15625 -22.6875 C 24.226562 -22.21875 24.328125 -21.765625 24.453125 -21.328125 L 29.015625 -5.15625 L 33.875 -18.3125 C 34.34375 -19.519531 34.691406 -20.59375 34.921875 -21.53125 C 35.148438 -22.476562 35.265625 -23.242188 35.265625 -23.828125 C 35.265625 -24.847656 35.023438 -25.570312 34.546875 -26 C 34.066406 -26.425781 33.226562 -26.664062 32.03125 -26.71875 L 32.03125 -27.265625 L 41.109375 -27.265625 L 41.109375 -26.71875 C 39.910156 -26.539062 38.894531 -25.941406 38.0625 -24.921875 C 37.226562 -23.910156 36.296875 -22.03125 35.265625 -19.28125 L 27.671875 0.578125 L 26.75 0.578125 L 20.375 -20.703125 Z M 13.4375 0.578125 "/></g></g><g transform="translate(401.392294, 184.131646)"><g><path d="M 1.6875 0 L 1.6875 -0.578125 L 2.015625 -0.578125 C 3.429688 -0.578125 4.382812 -1.050781 4.875 -2 C 5.363281 -2.945312 5.609375 -5.523438 5.609375 -9.734375 L 5.609375 -17.546875 C 5.609375 -21.734375 5.363281 -24.304688 4.875 -25.265625 C 4.382812 -26.234375 3.429688 -26.71875 2.015625 -26.71875 L 1.6875 -26.71875 L 1.6875 -27.265625 L 22.59375 -27.265625 L 22.875 -20.75 L 22.359375 -20.75 C 21.910156 -22.832031 21.054688 -24.296875 19.796875 -25.140625 C 18.546875 -25.992188 16.554688 -26.421875 13.828125 -26.421875 L 9.890625 -26.421875 L 9.890625 -14.859375 C 12.429688 -14.890625 14.148438 -15.238281 15.046875 -15.90625 C 15.953125 -16.582031 16.441406 -17.8125 16.515625 -19.59375 L 17.0625 -19.59375 L 17.0625 -8.84375 L 16.515625 -8.84375 C 16.367188 -10.851562 15.835938 -12.222656 14.921875 -12.953125 C 14.003906 -13.691406 12.328125 -14.082031 9.890625 -14.125 L 9.890625 -8.234375 C 9.890625 -4.773438 10.203125 -2.671875 10.828125 -1.921875 C 11.460938 -1.179688 13.085938 -0.8125 15.703125 -0.8125 C 18.441406 -0.8125 20.523438 -1.40625 21.953125 -2.59375 C 23.390625 -3.78125 24.285156 -5.660156 24.640625 -8.234375 L 25.21875 -8.234375 L 24.9375 0 Z M 1.6875 0 "/></g></g><g transform="translate(428.104754, 184.131646)"><g><path d="M 7.125 -11.734375 L 15.78125 -11.734375 L 11.5 -22.515625 Z M 6.8125 -10.8125 L 5.96875 -8.78125 C 5.5 -7.644531 5.140625 -6.613281 4.890625 -5.6875 C 4.640625 -4.769531 4.515625 -4.015625 4.515625 -3.421875 C 4.515625 -2.585938 4.789062 -1.941406 5.34375 -1.484375 C 5.894531 -1.035156 6.789062 -0.734375 8.03125 -0.578125 L 8.03125 0 L -0.765625 0 L -0.765625 -0.578125 C 0.953125 -0.660156 3.09375 -3.847656 5.65625 -10.140625 C 5.925781 -10.828125 6.132812 -11.347656 6.28125 -11.703125 L 12.859375 -27.90625 L 13.625 -27.90625 L 22.0625 -7.390625 C 22.15625 -7.179688 22.28125 -6.878906 22.4375 -6.484375 C 24.039062 -2.578125 25.648438 -0.609375 27.265625 -0.578125 L 27.265625 0 L 15.78125 0 L 15.78125 -0.546875 C 16.882812 -0.617188 17.703125 -0.832031 18.234375 -1.1875 C 18.773438 -1.539062 19.046875 -2.054688 19.046875 -2.734375 C 19.046875 -3.023438 18.976562 -3.390625 18.84375 -3.828125 C 18.71875 -4.265625 18.445312 -5.03125 18.03125 -6.125 L 16.21875 -10.8125 Z M 6.8125 -10.8125 "/></g></g><g transform="translate(454.817214, 184.131646)"><g><path d="M 9.890625 -8.234375 C 9.890625 -4.859375 10.238281 -2.773438 10.9375 -1.984375 C 11.644531 -1.203125 13.171875 -0.8125 15.515625 -0.8125 C 18.367188 -0.8125 20.507812 -1.394531 21.9375 -2.5625 C 23.375 -3.726562 24.273438 -5.617188 24.640625 -8.234375 L 25.21875 -8.234375 L 24.9375 0 L 1.6875 0 L 1.6875 -0.578125 L 2.015625 -0.578125 C 3.429688 -0.578125 4.382812 -1.050781 4.875 -2 C 5.363281 -2.945312 5.609375 -5.523438 5.609375 -9.734375 L 5.609375 -17.546875 C 5.609375 -21.734375 5.363281 -24.304688 4.875 -25.265625 C 4.382812 -26.234375 3.429688 -26.71875 2.015625 -26.71875 L 1.6875 -26.71875 L 1.6875 -27.265625 L 13.828125 -27.265625 L 13.828125 -26.71875 L 13.515625 -26.71875 C 12.078125 -26.71875 11.113281 -26.226562 10.625 -25.25 C 10.132812 -24.269531 9.890625 -21.566406 9.890625 -17.140625 Z M 9.890625 -8.234375 "/></g></g><g transform="translate(480.387106, 184.131646)"><g><path d="M 16.140625 -10.578125 L 16.140625 -9.734375 C 16.140625 -5.523438 16.382812 -2.945312 16.875 -2 C 17.363281 -1.050781 18.3125 -0.578125 19.71875 -0.578125 L 20.046875 -0.578125 L 20.046875 0 L 7.9375 0 L 7.9375 -0.578125 L 8.28125 -0.578125 C 9.675781 -0.578125 10.617188 -1.050781 11.109375 -2 C 11.609375 -2.945312 11.859375 -5.523438 11.859375 -9.734375 L 11.859375 -26.421875 L 9.96875 -26.421875 C 7.144531 -26.421875 5.132812 -25.941406 3.9375 -24.984375 C 2.738281 -24.023438 1.910156 -22.300781 1.453125 -19.8125 L 0.921875 -19.8125 L 1.375 -27.265625 L 26.640625 -27.265625 L 27.0625 -19.8125 L 26.546875 -19.8125 C 26.078125 -22.300781 25.238281 -24.023438 24.03125 -24.984375 C 22.832031 -25.941406 20.832031 -26.421875 18.03125 -26.421875 L 16.140625 -26.421875 Z M 16.140625 -10.578125 "/></g></g><g transform="translate(508.38003, 184.131646)"><g><path d="M 23.515625 -13.703125 L 9.890625 -13.703125 L 9.890625 -10.125 C 9.890625 -5.695312 10.132812 -3 10.625 -2.03125 C 11.113281 -1.0625 12.078125 -0.578125 13.515625 -0.578125 L 13.828125 -0.578125 L 13.828125 0 L 1.6875 0 L 1.6875 -0.578125 L 2.015625 -0.578125 C 3.429688 -0.578125 4.382812 -1.050781 4.875 -2 C 5.363281 -2.945312 5.609375 -5.523438 5.609375 -9.734375 L 5.609375 -17.546875 C 5.609375 -21.734375 5.363281 -24.304688 4.875 -25.265625 C 4.382812 -26.234375 3.429688 -26.71875 2.015625 -26.71875 L 1.6875 -26.71875 L 1.6875 -27.265625 L 13.828125 -27.265625 L 13.828125 -26.71875 L 13.515625 -26.71875 C 12.078125 -26.71875 11.113281 -26.226562 10.625 -25.25 C 10.132812 -24.269531 9.890625 -21.566406 9.890625 -17.140625 L 9.890625 -14.640625 L 23.515625 -14.640625 L 23.515625 -17.546875 C 23.515625 -21.734375 23.269531 -24.304688 22.78125 -25.265625 C 22.289062 -26.234375 21.34375 -26.71875 19.9375 -26.71875 L 19.59375 -26.71875 L 19.59375 -27.265625 L 31.75 -27.265625 L 31.75 -26.71875 L 31.421875 -26.71875 C 30.015625 -26.71875 29.0625 -26.234375 28.5625 -25.265625 C 28.070312 -24.304688 27.828125 -21.734375 27.828125 -17.546875 L 27.828125 -9.734375 C 27.828125 -5.523438 28.070312 -2.945312 28.5625 -2 C 29.0625 -1.050781 30.015625 -0.578125 31.421875 -0.578125 L 31.75 -0.578125 L 31.75 0 L 19.59375 0 L 19.59375 -0.578125 L 19.9375 -0.578125 C 21.34375 -0.578125 22.289062 -1.050781 22.78125 -2 C 23.269531 -2.945312 23.515625 -5.523438 23.515625 -9.734375 Z M 23.515625 -13.703125 "/></g></g></g></svg>
